<svg xmlns="http://www.w3.org/2000/svg" width="1024" height="1024" viewBox="0 0 1024 1024">
  <defs>
    <linearGradient id="bg" x1="120" y1="80" x2="900" y2="950" gradientUnits="userSpaceOnUse">
      <stop offset="0" stop-color="#09244F"/>
      <stop offset="0.45" stop-color="#1262B3"/>
      <stop offset="1" stop-color="#0FB9A6"/>
    </linearGradient>
    <linearGradient id="paper" x1="340" y1="210" x2="700" y2="805" gradientUnits="userSpaceOnUse">
      <stop offset="0" stop-color="#FFFFFF"/>
      <stop offset="1" stop-color="#DDEBFF"/>
    </linearGradient>
    <linearGradient id="badge" x1="620" y1="190" x2="835" y2="405" gradientUnits="userSpaceOnUse">
      <stop offset="0" stop-color="#FFD86A"/>
      <stop offset="1" stop-color="#FF9E2C"/>
    </linearGradient>
    <filter id="softShadow" x="-30%" y="-30%" width="160%" height="160%">
      <feDropShadow dx="0" dy="28" stdDeviation="34" flood-color="#031023" flood-opacity="0.35"/>
    </filter>
    <filter id="glow" x="-80%" y="-80%" width="260%" height="260%">
      <feGaussianBlur stdDeviation="12" result="blur"/>
      <feMerge>
        <feMergeNode in="blur"/>
        <feMergeNode in="SourceGraphic"/>
      </feMerge>
    </filter>
  </defs>

  <rect width="1024" height="1024" fill="url(#bg)"/>

  <g opacity="0.22" fill="none" stroke="#FFFFFF" stroke-width="10" stroke-linecap="round">
    <path d="M152 186 C246 154 314 196 379 258"/>
    <path d="M778 738 C864 720 914 656 944 584"/>
    <path d="M116 772 C218 804 306 768 374 696"/>
  </g>

  <g filter="url(#glow)" stroke="#9FEFFF" stroke-width="10" stroke-linecap="round" stroke-linejoin="round" opacity="0.92">
    <path d="M164 362 H264 C286 362 298 344 314 328 L368 274"/>
    <path d="M850 536 H758 C730 536 718 554 700 574 L656 622"/>
    <path d="M182 624 H282 C306 624 322 642 338 660 L386 712"/>
    <circle cx="164" cy="362" r="18" fill="#9FEFFF"/>
    <circle cx="850" cy="536" r="18" fill="#9FEFFF"/>
    <circle cx="182" cy="624" r="18" fill="#9FEFFF"/>
  </g>

  <g filter="url(#softShadow)">
    <path d="M333 172 H628 L760 304 V804 C760 852 730 882 682 882 H333 C285 882 255 852 255 804 V250 C255 202 285 172 333 172 Z" fill="url(#paper)"/>
    <path d="M626 172 V290 C626 310 640 324 660 324 H760 Z" fill="#BBD2F4"/>
  </g>

  <g fill="none" stroke="#165DAD" stroke-linecap="round" stroke-linejoin="round">
    <path d="M362 398 L402 438 L478 354" stroke-width="30"/>
    <path d="M362 562 L402 602 L478 518" stroke-width="30"/>
    <path d="M362 722 L402 762 L478 678" stroke-width="30"/>
    <path d="M532 398 H648" stroke-width="24"/>
    <path d="M532 562 H650" stroke-width="24"/>
    <path d="M532 722 H622" stroke-width="24"/>
  </g>

  <g filter="url(#softShadow)">
    <circle cx="730" cy="260" r="118" fill="url(#badge)"/>
    <path d="M730 186 L752 236 L806 242 L766 278 L778 332 L730 304 L682 332 L694 278 L654 242 L708 236 Z" fill="#FFFFFF"/>
    <path d="M676 373 C712 402 748 402 784 373" fill="none" stroke="#FFF4C5" stroke-width="18" stroke-linecap="round"/>
  </g>

  <g fill="#FFFFFF">
    <circle cx="178" cy="214" r="12" opacity="0.8"/>
    <circle cx="876" cy="756" r="16" opacity="0.7"/>
    <circle cx="118" cy="534" r="8" opacity="0.75"/>
    <circle cx="914" cy="306" r="10" opacity="0.7"/>
  </g>
</svg>
