<svg xmlns="http://www.w3.org/2000/svg" width="1024" height="1024" viewBox="0 0 1024 1024">
  <defs>
    <linearGradient id="bg" x1="110" y1="80" x2="920" y2="930" gradientUnits="userSpaceOnUse">
      <stop offset="0" stop-color="#073B4C"/>
      <stop offset="0.48" stop-color="#118AB2"/>
      <stop offset="1" stop-color="#06D6A0"/>
    </linearGradient>
    <linearGradient id="panel" x1="250" y1="190" x2="760" y2="810" gradientUnits="userSpaceOnUse">
      <stop offset="0" stop-color="#FFFFFF"/>
      <stop offset="1" stop-color="#DDF4FF"/>
    </linearGradient>
    <linearGradient id="ribbon" x1="652" y1="608" x2="826" y2="850" gradientUnits="userSpaceOnUse">
      <stop offset="0" stop-color="#FFD166"/>
      <stop offset="1" stop-color="#F77F00"/>
    </linearGradient>
    <filter id="shadow" x="-35%" y="-35%" width="170%" height="170%">
      <feDropShadow dx="0" dy="28" stdDeviation="32" flood-color="#031126" flood-opacity="0.38"/>
    </filter>
  </defs>

  <rect width="1024" height="1024" fill="url(#bg)"/>

  <g opacity="0.22" fill="none" stroke="#FFFFFF" stroke-width="12" stroke-linecap="round">
    <path d="M112 234 C228 156 378 158 488 240"/>
    <path d="M930 760 C808 860 650 868 520 788"/>
    <path d="M104 780 C214 850 348 842 456 760"/>
    <path d="M914 238 C806 158 668 158 556 234"/>
  </g>

  <g filter="url(#shadow)">
    <circle cx="512" cy="512" r="330" fill="#EAF6FF"/>
    <circle cx="512" cy="512" r="276" fill="#073B4C"/>
    <rect x="248" y="292" width="528" height="390" rx="54" fill="url(#panel)"/>
    <rect x="248" y="292" width="528" height="86" rx="54" fill="#118AB2"/>
    <path d="M302 378 H722" stroke="#073B4C" stroke-width="10" opacity="0.15"/>
  </g>

  <g fill="#073B4C" opacity="0.88">
    <circle cx="330" cy="335" r="16"/>
    <circle cx="382" cy="335" r="16"/>
    <circle cx="434" cy="335" r="16"/>
  </g>

  <text x="512" y="575" text-anchor="middle"
        font-family="Arial Black, Arial, Helvetica, sans-serif"
        font-size="164" font-weight="900" fill="#073B4C">EXAM</text>
  <rect x="328" y="614" width="368" height="24" rx="12" fill="#118AB2"/>

  <g fill="none" stroke="#118AB2" stroke-width="18" stroke-linecap="round" stroke-linejoin="round">
    <path d="M342 456 L382 496 L454 422"/>
    <path d="M570 456 H682"/>
  </g>

  <g filter="url(#shadow)">
    <circle cx="720" cy="710" r="112" fill="url(#ribbon)"/>
    <path d="M674 710 L712 748 L784 666" fill="none" stroke="#FFFFFF" stroke-width="34" stroke-linecap="round" stroke-linejoin="round"/>
    <path d="M668 814 L646 902 L720 858 L794 902 L772 814" fill="#F77F00"/>
  </g>

  <g fill="#FFFFFF" opacity="0.82">
    <circle cx="150" cy="360" r="13"/>
    <circle cx="870" cy="358" r="13"/>
    <circle cx="170" cy="690" r="15"/>
    <circle cx="846" cy="824" r="15"/>
  </g>
</svg>
