<svg xmlns="http://www.w3.org/2000/svg" width="1024" height="1024" viewBox="0 0 1024 1024">
  <defs>
    <linearGradient id="bg" x1="72" y1="64" x2="946" y2="956" gradientUnits="userSpaceOnUse">
      <stop offset="0" stop-color="#0F172A"/>
      <stop offset="0.45" stop-color="#166534"/>
      <stop offset="1" stop-color="#F59E0B"/>
    </linearGradient>
    <linearGradient id="card" x1="244" y1="156" x2="782" y2="856" gradientUnits="userSpaceOnUse">
      <stop offset="0" stop-color="#FFFFFF"/>
      <stop offset="1" stop-color="#ECFDF5"/>
    </linearGradient>
    <linearGradient id="badge" x1="618" y1="620" x2="838" y2="884" gradientUnits="userSpaceOnUse">
      <stop offset="0" stop-color="#FDE68A"/>
      <stop offset="1" stop-color="#DC2626"/>
    </linearGradient>
    <filter id="shadow" x="-35%" y="-35%" width="170%" height="170%">
      <feDropShadow dx="0" dy="32" stdDeviation="36" flood-color="#020617" flood-opacity="0.38"/>
    </filter>
  </defs>

  <rect width="1024" height="1024" fill="url(#bg)"/>
  <g opacity="0.2" fill="none" stroke="#FFFFFF" stroke-width="12" stroke-linecap="round">
    <path d="M92 276 C206 190 348 182 474 254"/>
    <path d="M930 744 C780 866 596 872 448 762"/>
    <path d="M118 820 C244 894 376 864 488 758"/>
    <path d="M900 236 C776 148 638 150 524 248"/>
  </g>

  <g filter="url(#shadow)">
    <rect x="222" y="154" width="580" height="714" rx="72" fill="url(#card)"/>
    <rect x="278" y="224" width="468" height="96" rx="28" fill="#166534"/>
    <text x="512" y="292" text-anchor="middle"
          font-family="Arial Black, Arial, Helvetica, sans-serif"
          font-size="56" font-weight="900" fill="#FFFFFF">EXAM</text>
    <rect x="304" y="390" width="118" height="30" rx="15" fill="#16A34A"/>
    <rect x="462" y="390" width="254" height="30" rx="15" fill="#CBD5E1"/>
    <rect x="304" y="466" width="118" height="30" rx="15" fill="#16A34A"/>
    <rect x="462" y="466" width="254" height="30" rx="15" fill="#CBD5E1"/>
    <rect x="304" y="542" width="118" height="30" rx="15" fill="#16A34A"/>
    <rect x="462" y="542" width="254" height="30" rx="15" fill="#CBD5E1"/>
    <path d="M326 402 L352 428 L402 368" fill="none" stroke="#FFFFFF" stroke-width="18" stroke-linecap="round" stroke-linejoin="round"/>
    <path d="M326 478 L352 504 L402 444" fill="none" stroke="#FFFFFF" stroke-width="18" stroke-linecap="round" stroke-linejoin="round"/>
    <path d="M326 554 L352 580 L402 520" fill="none" stroke="#FFFFFF" stroke-width="18" stroke-linecap="round" stroke-linejoin="round"/>
    <rect x="326" y="660" width="372" height="34" rx="17" fill="#166534"/>
  </g>

  <g filter="url(#shadow)">
    <circle cx="728" cy="732" r="118" fill="url(#badge)"/>
    <path d="M674 734 L718 778 L804 674" fill="none" stroke="#FFFFFF" stroke-width="38" stroke-linecap="round" stroke-linejoin="round"/>
    <path d="M676 842 L650 934 L728 888 L806 934 L780 842" fill="#B91C1C"/>
  </g>

  <g fill="#FFFFFF" opacity="0.86">
    <circle cx="140" cy="374" r="15"/>
    <circle cx="884" cy="374" r="15"/>
    <circle cx="166" cy="678" r="19"/>
    <circle cx="852" cy="858" r="17"/>
  </g>
</svg>
