<svg xmlns="http://www.w3.org/2000/svg" width="1024" height="1024" viewBox="0 0 1024 1024">
  <defs>
    <linearGradient id="bg" x1="96" y1="72" x2="912" y2="952" gradientUnits="userSpaceOnUse">
      <stop offset="0" stop-color="#1E293B"/>
      <stop offset="0.52" stop-color="#2563EB"/>
      <stop offset="1" stop-color="#14B8A6"/>
    </linearGradient>
    <linearGradient id="paper" x1="272" y1="150" x2="756" y2="860" gradientUnits="userSpaceOnUse">
      <stop offset="0" stop-color="#FFFFFF"/>
      <stop offset="1" stop-color="#E6F3FF"/>
    </linearGradient>
    <linearGradient id="gold" x1="655" y1="622" x2="850" y2="880" gradientUnits="userSpaceOnUse">
      <stop offset="0" stop-color="#FDE68A"/>
      <stop offset="1" stop-color="#F97316"/>
    </linearGradient>
    <filter id="shadow" x="-35%" y="-35%" width="170%" height="170%">
      <feDropShadow dx="0" dy="30" stdDeviation="34" flood-color="#020617" flood-opacity="0.36"/>
    </filter>
  </defs>

  <rect width="1024" height="1024" fill="url(#bg)"/>
  <g opacity="0.18" fill="none" stroke="#FFFFFF" stroke-width="12" stroke-linecap="round">
    <path d="M98 250 C232 154 376 150 512 246"/>
    <path d="M926 266 C800 160 664 152 532 246"/>
    <path d="M112 790 C254 880 410 858 528 748"/>
    <path d="M904 792 C776 878 626 856 508 748"/>
  </g>

  <g filter="url(#shadow)">
    <rect x="236" y="136" width="552" height="736" rx="64" fill="url(#paper)"/>
    <path d="M626 136 H724 C760 136 788 164 788 200 V298 Z" fill="#BFDBFE"/>
    <path d="M626 136 V270 C626 286 638 298 654 298 H788" fill="#DBEAFE"/>
    <rect x="300" y="232" width="238" height="34" rx="17" fill="#2563EB"/>
    <rect x="300" y="304" width="360" height="26" rx="13" fill="#94A3B8"/>
    <rect x="300" y="366" width="426" height="26" rx="13" fill="#CBD5E1"/>
    <rect x="300" y="428" width="392" height="26" rx="13" fill="#CBD5E1"/>
  </g>

  <g fill="#0F172A">
    <text x="512" y="634" text-anchor="middle"
          font-family="Arial Black, Arial, Helvetica, sans-serif"
          font-size="156" font-weight="900">EXAM</text>
  </g>
  <rect x="326" y="682" width="372" height="28" rx="14" fill="#2563EB"/>

  <g filter="url(#shadow)">
    <circle cx="734" cy="728" r="118" fill="url(#gold)"/>
    <path d="M682 728 L724 770 L800 680" fill="none" stroke="#FFFFFF" stroke-width="36" stroke-linecap="round" stroke-linejoin="round"/>
    <path d="M680 838 L656 928 L734 882 L812 928 L788 838" fill="#EA580C"/>
  </g>

  <g fill="#FFFFFF" opacity="0.9">
    <circle cx="156" cy="382" r="14"/>
    <circle cx="878" cy="374" r="14"/>
    <circle cx="168" cy="646" r="18"/>
    <circle cx="848" cy="856" r="16"/>
  </g>
</svg>
