<svg xmlns="http://www.w3.org/2000/svg" width="1024" height="1024" viewBox="0 0 1024 1024">
  <defs>
    <linearGradient id="bg" x1="88" y1="74" x2="932" y2="948" gradientUnits="userSpaceOnUse">
      <stop offset="0" stop-color="#172554"/>
      <stop offset="0.5" stop-color="#0F766E"/>
      <stop offset="1" stop-color="#CA8A04"/>
    </linearGradient>
    <linearGradient id="sheet" x1="248" y1="132" x2="780" y2="878" gradientUnits="userSpaceOnUse">
      <stop offset="0" stop-color="#FFFFFF"/>
      <stop offset="1" stop-color="#F0FDFA"/>
    </linearGradient>
    <linearGradient id="seal" x1="640" y1="618" x2="850" y2="888" gradientUnits="userSpaceOnUse">
      <stop offset="0" stop-color="#FDE047"/>
      <stop offset="1" stop-color="#0EA5E9"/>
    </linearGradient>
    <filter id="shadow" x="-35%" y="-35%" width="170%" height="170%">
      <feDropShadow dx="0" dy="32" stdDeviation="34" flood-color="#020617" flood-opacity="0.42"/>
    </filter>
  </defs>

  <rect width="1024" height="1024" fill="url(#bg)"/>
  <g opacity="0.18" fill="none" stroke="#FFFFFF" stroke-width="12" stroke-linecap="round">
    <path d="M94 276 C234 160 390 156 526 258"/>
    <path d="M932 748 C778 872 604 866 474 752"/>
    <path d="M118 818 C254 894 406 862 528 742"/>
    <path d="M904 244 C786 150 638 154 522 258"/>
  </g>

  <g filter="url(#shadow)">
    <rect x="238" y="134" width="548" height="748" rx="88" fill="url(#sheet)"/>
    <rect x="300" y="220" width="424" height="96" rx="30" fill="#0F766E"/>
    <text x="512" y="288" text-anchor="middle"
          font-family="Arial Black, Arial, Helvetica, sans-serif"
          font-size="58" font-weight="900" fill="#FFFFFF">EXAMS</text>
    <rect x="314" y="386" width="96" height="30" rx="15" fill="#14B8A6"/>
    <rect x="456" y="386" width="248" height="30" rx="15" fill="#CBD5E1"/>
    <rect x="314" y="468" width="96" height="30" rx="15" fill="#14B8A6"/>
    <rect x="456" y="468" width="248" height="30" rx="15" fill="#CBD5E1"/>
    <rect x="314" y="550" width="96" height="30" rx="15" fill="#14B8A6"/>
    <rect x="456" y="550" width="248" height="30" rx="15" fill="#CBD5E1"/>
    <path d="M334 398 L356 420 L396 372" fill="none" stroke="#FFFFFF" stroke-width="16" stroke-linecap="round" stroke-linejoin="round"/>
    <path d="M334 480 L356 502 L396 454" fill="none" stroke="#FFFFFF" stroke-width="16" stroke-linecap="round" stroke-linejoin="round"/>
    <path d="M334 562 L356 584 L396 536" fill="none" stroke="#FFFFFF" stroke-width="16" stroke-linecap="round" stroke-linejoin="round"/>
    <rect x="332" y="670" width="360" height="34" rx="17" fill="#172554"/>
  </g>

  <g filter="url(#shadow)">
    <circle cx="724" cy="734" r="118" fill="url(#seal)"/>
    <path d="M672 736 L716 780 L802 678" fill="none" stroke="#FFFFFF" stroke-width="38" stroke-linecap="round" stroke-linejoin="round"/>
    <path d="M672 846 L646 936 L724 890 L802 936 L776 846" fill="#0369A1"/>
  </g>

  <g fill="#FFFFFF" opacity="0.86">
    <circle cx="142" cy="384" r="16"/>
    <circle cx="882" cy="374" r="16"/>
    <circle cx="170" cy="682" r="20"/>
    <circle cx="848" cy="852" r="18"/>
  </g>
</svg>
