<svg xmlns="http://www.w3.org/2000/svg" viewBox="0 0 32 32" fill="none">
  <rect width="32" height="32" rx="6" fill="url(#g)"/>
  <path d="M9 22V10h6.2a3.2 3.2 0 0 1 3.2 3.2 3.2 3.2 0 0 1-3.2 3.2H12v5.6H9zm3-9.6v2.4h3a1.2 1.2 0 0 0 1.2-1.2 1.2 1.2 0 0 0-1.2-1.2H12zm9 9.6V10h2.6l3.2 5.2V10H29v12h-2.4l-3.4-5.6V22H21z" fill="#fff"/>
  <defs>
    <linearGradient id="g" x1="0" y1="0" x2="32" y2="32" gradientUnits="userSpaceOnUse">
      <stop offset="0" stop-color="#2563eb"/>
      <stop offset="1" stop-color="#7c3aed"/>
    </linearGradient>
  </defs>
</svg>
